<?xml version="1.0" encoding="UTF-8"?>
<svg xmlns="http://www.w3.org/2000/svg" xmlns:xlink="http://www.w3.org/1999/xlink" width="60px" height="60px" viewBox="0 0 60 60" version="1.1">
    <!-- Generator: Sketch 52.6 (67491) - http://www.bohemiancoding.com/sketch -->
    <title>044 - Printing Voucher</title>
    <desc>Created with Sketch.</desc>
    <g id="Page-1" stroke="none" stroke-width="1" fill="none" fill-rule="evenodd">
        <g id="044---Printing-Voucher">
            <g id="Icons_copy" transform="translate(1.000000, 1.000000)">
                <path d="M15,7 L12,7 C10.8967981,7.0032948 10.0032948,7.89679813 10,9 L10,13 L48,13 L48,9 C47.9967052,7.89679813 47.1032019,7.0032948 46,7 L43,7" id="Path" fill="#FF8401"/>
                <path d="M11,39 L3,39 C1.34314575,39 0,37.6568542 -2.22044605e-16,36 L-2.22044605e-16,16 C-4.4408921e-16,14.3431458 1.34314575,13 3,13 L55,13 C56.6568542,13 58,14.3431458 58,16 L58,36 C58,37.6568542 56.6568542,39 55,39 L11,39 Z" id="Path" fill="#FFDC00"/>
                <path d="M55,13 L52,13 C53.6568542,13 55,14.3431458 55,16 L55,36 C55,37.6568542 53.6568542,39 52,39 L55,39 C56.6568542,39 58,37.6568542 58,36 L58,16 C58,14.3431458 56.6568542,13 55,13 Z" id="Path" fill="#FF8401"/>
                <path d="M17,0 L41,0 C42.1045695,0 43,0.8954305 43,2 L43,13 L15,13 L15,2 C15,0.8954305 15.8954305,2.22044605e-16 17,0 Z" id="Path" fill="#FFFFFF"/>
                <path d="M41,0 L38,0 C39.1045695,0 40,0.8954305 40,2 L40,13 L43,13 L43,2 C43,0.8954305 42.1045695,0 41,0 Z" id="Path" fill="#CCCCCC"/>
                <path d="M47,39 L52,39 L52,30 C51.9967052,28.8967981 51.1032019,28.0032948 50,28 L8,28 C6.89679813,28.0032948 6.0032948,28.8967981 6,30 L6,39 L47,39 Z" id="Path" fill="#FF8401"/>
                <path d="M47,28 L47,56 C46.9967052,57.1032019 46.1032019,57.9967052 45,58 L13,58 C11.8967981,57.9967052 11.0032948,57.1032019 11,56 L11,28 L47,28 Z" id="Path" fill="#FFFFFF"/>
                <path d="M44,28 L44,56 C44,57.1045695 43.1045695,58 42,58 L45,58 C46.1045695,58 47,57.1045695 47,56 L47,28 L44,28 Z" id="Path" fill="#CCCCCC"/>
                <circle id="Oval" fill="#25E552" cx="6" cy="19" r="2"/>
                <circle id="Oval" fill="#25E552" cx="14" cy="19" r="2"/>
                <path d="M42.88,40.42 L41.34,42.89 L41.68,45.8 C41.7198986,46.0993575 41.578525,46.3938858 41.32,46.55 L38.89,48.08 L37.98,50.85 C37.87947,51.1424469 37.6177347,51.3494912 37.31,51.38 L34.49,51.68 L32.5,53.76 C32.2825668,53.984509 31.9528877,54.0590792 31.66,53.95 L29,52.97 L26.34,53.95 C26.0471123,54.0590792 25.7174332,53.984509 25.5,53.76 L23.51,51.68 L20.69,51.38 C20.3822653,51.3494912 20.12053,51.1424469 20.02,50.85 L19.11,48.08 L16.68,46.55 C16.421475,46.3938858 16.2801014,46.0993575 16.32,45.8 L16.66,42.89 L15.12,40.42 C14.9611757,40.1625225 14.9611757,39.8374775 15.12,39.58 L16.66,37.11 L16.32,34.2 C16.2801014,33.9006425 16.421475,33.6061142 16.68,33.45 L19.11,31.92 L20.02,29.15 C20.12053,28.8575531 20.3822653,28.6505088 20.69,28.62 L23.51,28.32 L23.82,28 L34.18,28 L34.49,28.32 L37.31,28.62 C37.6177347,28.6505088 37.87947,28.8575531 37.98,29.15 L38.89,31.92 L41.32,33.45 C41.578525,33.6061142 41.7198986,33.9006425 41.68,34.2 L41.34,37.11 L42.88,39.58 C43.0388243,39.8374775 43.0388243,40.1625225 42.88,40.42 Z" id="Path" fill="#DB4E6C"/>
                <path d="M26,52.965 L25.067,53.31 L25.496,53.758 C25.7124873,53.9840379 26.0425621,54.0598765 26.336,53.951 L27.5,53.52 L26,52.965 Z" id="Path" fill="#A43B51"/>
                <path d="M42.88,40.42 L41.34,42.89 L41.68,45.8 C41.7198986,46.0993575 41.578525,46.3938858 41.32,46.55 L38.89,48.08 L37.98,50.85 C37.87947,51.1424469 37.6177347,51.3494912 37.31,51.38 L34.49,51.68 L32.5,53.76 C32.2825668,53.984509 31.9528877,54.0590792 31.66,53.95 L29.93,53.31 L31.49,51.68 L34.31,51.38 C34.6177347,51.3494912 34.87947,51.1424469 34.98,50.85 L35.89,48.08 L38.32,46.55 C38.578525,46.3938858 38.7198986,46.0993575 38.68,45.8 L38.34,42.89 L39.88,40.42 C40.0388243,40.1625225 40.0388243,39.8374775 39.88,39.58 L38.34,37.11 L38.68,34.2 C38.7198986,33.9006425 38.578525,33.6061142 38.32,33.45 L35.89,31.92 L34.98,29.15 C34.87947,28.8575531 34.6177347,28.6505088 34.31,28.62 L31.49,28.32 L31.18,28 L34.18,28 L34.49,28.32 L37.31,28.62 C37.6177347,28.6505088 37.87947,28.8575531 37.98,29.15 L38.89,31.92 L41.32,33.45 C41.578525,33.6061142 41.7198986,33.9006425 41.68,34.2 L41.34,37.11 L42.88,39.58 C43.0388243,39.8374775 43.0388243,40.1625225 42.88,40.42 Z" id="Path" fill="#A43B51"/>
                <circle id="Oval" fill="#FFFFFF" cx="24.5" cy="35.75" r="2.5"/>
                <circle id="Oval" fill="#FFFFFF" cx="33.5" cy="44.75" r="2.5"/>
            </g>
            <g id="Icons_copy_2" transform="translate(1.000000, 14.000000)" fill="#FFFFFF">
                <path d="M3,23 L3,3 C3,1.34314575 4.34314575,-1.77635684e-15 6,-1.77635684e-15 L3,-1.77635684e-15 C1.34314575,-1.77635684e-15 0,1.34314575 -2.22044605e-16,3 L-2.22044605e-16,23 C0,24.6568542 1.34314575,26 3,26 L6,26 C4.34314575,26 3,24.6568542 3,23 Z" id="Path"/>
            </g>
            <g id="Icons">
                <rect id="Rectangle" fill="#FFFFFF" x="11" y="49" width="2" height="8"/>
                <path d="M56,13 L50,13 L50,10 C50,8.34314575 48.6568542,7 47,7 L45,7 L45,3 C45,1.34314575 43.6568542,1.01453063e-16 42,0 L18,0 C16.3431458,-1.01453063e-16 15,1.34314575 15,3 L15,7 L13,7 C11.3431458,7 10,8.34314575 10,10 L10,13 L4,13 C1.790861,13 2.705415e-16,14.790861 0,17 L0,37 C2.705415e-16,39.209139 1.790861,41 4,41 L11,41 L11,49 C11,49.5522847 11.4477153,50 12,50 C12.5522847,50 13,49.5522847 13,49 L13,30 L47,30 L47,57 C47,57.5522847 46.5522847,58 46,58 L14,58 C13.4477153,58 13,57.5522847 13,57 C13,56.4477153 12.5522847,56 12,56 C11.4477153,56 11,56.4477153 11,57 C11,58.6568542 12.3431458,60 14,60 L46,60 C47.6568542,60 49,58.6568542 49,57 L49,41 L56,41 C58.209139,41 60,39.209139 60,37 L60,17 C60,14.790861 58.209139,13 56,13 Z M47,9 C47.5522847,9 48,9.44771525 48,10 L48,13 L45,13 L45,9 L47,9 Z M17,3 C17,2.44771525 17.4477153,2 18,2 L42,2 C42.5522847,2 43,2.44771525 43,3 L43,13 L17,13 L17,3 Z M12,10 C12,9.44771525 12.4477153,9 13,9 L15,9 L15,13 L12,13 L12,10 Z M8,39 L8,31 C8,30.4477153 8.44771525,30 9,30 L11,30 L11,39 L8,39 Z M49,39 L49,30 L51,30 C51.5522847,30 52,30.4477153 52,31 L52,39 L49,39 Z M58,37 C58,38.1045695 57.1045695,39 56,39 L54,39 L54,31 C54,29.3431458 52.6568542,28 51,28 L9,28 C7.34314575,28 6,29.3431458 6,31 L6,39 L4,39 C2.8954305,39 2,38.1045695 2,37 L2,17 C2,15.8954305 2.8954305,15 4,15 L56,15 C57.1045695,15 58,15.8954305 58,17 L58,37 Z" id="Shape" fill="#000000" fill-rule="nonzero"/>
                <path d="M12.02,54 C11.4677153,54.0027614 11.0177614,53.5572847 11.015,53.005 C11.0122386,52.4527153 11.4577153,52.0027614 12.01,52 L12.02,52 C12.5722847,52 13.02,52.4477153 13.02,53 C13.02,53.5522847 12.5722847,54 12.02,54 Z" id="Path" fill="#000000"/>
                <path d="M15.271,42.2 L16.626,44.372 L16.326,46.918 C16.2354166,47.6049706 16.5554147,48.281348 17.144,48.647 L19.269,49.985 L20.069,52.427 C20.2950027,53.087006 20.8840521,53.555435 21.578,53.627 L24.034,53.889 L25.775,55.7 C26.2675853,56.2140574 27.0182106,56.3868859 27.686,56.14 L30,55.285 L32.317,56.14 C32.5156595,56.2124703 32.7255351,56.2493678 32.937,56.249 C33.422626,56.2501605 33.887472,56.0520768 34.223,55.701 L35.96,53.886 L38.407,53.625 C39.1084089,53.5538165 39.7036907,53.0797018 39.93,52.412 L40.73,49.984 L42.846,48.651 C43.4352619,48.290876 43.7594588,47.6194091 43.675,46.934 L43.375,44.371 L44.732,42.194 C45.092001,41.6143473 45.092001,40.8806527 44.732,40.301 L43.377,38.129 L43.677,35.583 C43.7678446,34.8959885 43.4477826,34.2194759 42.859,33.854 L40.698,32.493 C40.431391,32.0615576 39.8840213,31.8980196 39.424431,32.1124951 C38.9648408,32.3269705 38.7385849,32.8515337 38.898,33.333 L38.958,33.503 C39.0330201,33.715279 39.1774804,33.8960306 39.368,34.016 L41.682,35.473 L41.358,38.244 C41.3312831,38.4694361 41.382066,38.6972539 41.502,38.89 L42.974,41.25 L41.502,43.61 C41.382066,43.8027461 41.3312831,44.0305639 41.358,44.256 L41.682,47.026 L39.368,48.484 C39.1710976,48.6080544 39.0236283,48.7969 38.951,49.018 L38.087,51.649 L35.395,51.936 C35.1604799,51.9594071 34.9420281,52.065796 34.779,52.236 L32.888,54.213 L30.357,53.279 C30.133684,53.196646 29.888316,53.196646 29.665,53.279 L27.134,54.213 L25.243,52.236 C25.0799719,52.065796 24.8615201,51.9594071 24.627,51.936 L21.936,51.649 L21.071,49.018 C20.9983717,48.7969 20.8509024,48.6080544 20.654,48.484 L18.34,47.027 L18.664,44.256 C18.6907169,44.0305639 18.639934,43.8027461 18.52,43.61 L17.048,41.25 L18.52,38.89 C18.639934,38.6972539 18.6907169,38.4694361 18.664,38.244 L18.34,35.474 L20.654,34.016 C20.8445196,33.8960306 20.9889799,33.715279 21.064,33.503 L21.124,33.333 C21.2834151,32.8515337 21.0571592,32.3269705 20.597569,32.1124951 C20.1379787,31.8980196 19.590609,32.0615576 19.324,32.493 L17.172,33.849 C16.5825426,34.2089469 16.258281,34.880548 16.343,35.566 L16.643,38.129 L15.286,40.306 C14.9209789,40.8830366 14.9151641,41.6172544 15.271,42.2 Z" id="Path" fill="#000000"/>
                <path d="M25.5,33.25 C24.0843821,33.25 22.8081551,34.1027476 22.2664216,35.410608 C21.7246881,36.7184684 22.0241333,38.2238807 23.0251263,39.2248737 C24.0261193,40.2258667 25.5315316,40.5253119 26.839392,39.9835784 C28.1472524,39.4418449 29,38.1656179 29,36.75 C29,34.8170034 27.4329966,33.25 25.5,33.25 Z M25.5,38.25 C24.6715729,38.25 24,37.5784271 24,36.75 C24,35.9215729 24.6715729,35.25 25.5,35.25 C26.3284271,35.25 27,35.9215729 27,36.75 C27,37.5784271 26.3284271,38.25 25.5,38.25 Z" id="Shape" fill="#000000" fill-rule="nonzero"/>
                <path d="M31,45.75 C31,47.6829966 32.5670034,49.25 34.5,49.25 C36.4329966,49.25 38,47.6829966 38,45.75 C38,43.8170034 36.4329966,42.25 34.5,42.25 C32.5670034,42.25 31,43.8170034 31,45.75 Z M36,45.75 C36,46.5784271 35.3284271,47.25 34.5,47.25 C33.6715729,47.25 33,46.5784271 33,45.75 C33,44.9215729 33.6715729,44.25 34.5,44.25 C35.3284271,44.25 36,44.9215729 36,45.75 Z" id="Shape" fill="#000000" fill-rule="nonzero"/>
                <path d="M35.293,34.543 L23.293,46.543 C23.0330434,46.7940745 22.9287874,47.1658779 23.0203028,47.5155073 C23.1118183,47.8651368 23.3848632,48.1381817 23.7344927,48.2296972 C24.0841221,48.3212126 24.4559255,48.2169566 24.707,47.957 L36.707,35.957 C37.0859722,35.5646211 37.0805524,34.9409152 36.6948186,34.5551814 C36.3090848,34.1694476 35.6853789,34.1640278 35.293,34.543 Z" id="Path" fill="#000000"/>
                <path d="M7,17 C5.34314575,17 4,18.3431458 4,20 C4,21.6568542 5.34314575,23 7,23 C8.65685425,23 10,21.6568542 10,20 C10,18.3431458 8.65685425,17 7,17 Z M7,21 C6.44771525,21 6,20.5522847 6,20 C6,19.4477153 6.44771525,19 7,19 C7.55228475,19 8,19.4477153 8,20 C8,20.5522847 7.55228475,21 7,21 Z" id="Shape" fill="#000000" fill-rule="nonzero"/>
                <path d="M15,17 C13.3431458,17 12,18.3431458 12,20 C12,21.6568542 13.3431458,23 15,23 C16.6568542,23 18,21.6568542 18,20 C18,18.3431458 16.6568542,17 15,17 Z M15,21 C14.4477153,21 14,20.5522847 14,20 C14,19.4477153 14.4477153,19 15,19 C15.5522847,19 16,19.4477153 16,20 C16,20.5522847 15.5522847,21 15,21 Z" id="Shape" fill="#000000" fill-rule="nonzero"/>
                <path d="M32,24 L28,24 C27.4477153,24 27,24.4477153 27,25 C27,25.5522847 27.4477153,26 28,26 L32,26 C32.5522847,26 33,25.5522847 33,25 C33,24.4477153 32.5522847,24 32,24 Z" id="Path" fill="#000000"/>
                <path d="M55,17 L51,17 C50.4477153,17 50,17.4477153 50,18 C50,18.5522847 50.4477153,19 51,19 L55,19 C55.5522847,19 56,18.5522847 56,18 C56,17.4477153 55.5522847,17 55,17 Z" id="Path" fill="#000000"/>
            </g>
        </g>
    </g>
</svg>
